<?xml version="1.0" encoding="UTF-8"?>
<svg version="1.0" viewBox="0 0 277.85 74.114" xml:space="preserve" xmlns="http://www.w3.org/2000/svg" xmlns:xlink="http://www.w3.org/1999/xlink">
	<style>
		.st0 {
			fill: #606469
		}

		.st26 {
			fill: #212121;
			fill-opacity: 2.000000e-02
		}
	</style>
	<path class="st0" d="m96.245 56.493c-2.3 0-4.2-0.8-5.7-2.3s-2.3-3.5-2.3-5.8 0.8-4.2 2.3-5.8c1.5-1.5 3.4-2.3 5.7-2.3s4.2 0.8 5.7 2.5l-1.4 1.3c-1.1-1.3-2.5-2-4.3-2-1.7 0-3.1 0.6-4.3 1.7s-1.7 2.6-1.7 4.5c0 1.8 0.6 3.3 1.7 4.5 1.2 1.1 2.6 1.7 4.3 1.7 1.9 0 3.4-0.8 4.8-2.2l1.4 1.4c-0.7 0.8-1.6 1.5-2.7 2-1.1 0.5-2.2 0.8-3.5 0.8zm9.9-15.8v4.9l-0.1 1.5h0.1c0.3-0.5 0.7-0.9 1.4-1.3 0.6-0.4 1.3-0.5 2-0.5 1.3 0 2.3 0.4 3 1.2s1 1.9 1 3.2v6.5h-2v-6.2c0-2-0.9-2.9-2.6-2.9-0.8 0-1.5 0.3-2 1s-0.8 1.4-0.8 2.3v5.8h-2v-15.4zm11.7 15.4h-2v-10.6h1.9v1.7h0.1c0.2-0.6 0.6-1.1 1.2-1.4 0.6-0.4 1.2-0.6 1.8-0.6s1.1 0.1 1.5 0.3l-0.8 1.9c-0.3-0.1-0.6-0.2-1.1-0.2-0.7 0-1.4 0.3-1.9 0.9-0.6 0.6-0.8 1.3-0.8 2.2v5.8zm6.1-9.3c1-1.1 2.3-1.6 3.9-1.6s2.9 0.5 3.9 1.6 1.5 2.4 1.5 4-0.5 3-1.5 4c-1 1.1-2.3 1.6-3.9 1.6s-2.9-0.5-3.9-1.6-1.5-2.4-1.5-4 0.5-2.9 1.5-4zm1.5 6.8c0.7 0.7 1.5 1 2.4 1s1.7-0.4 2.4-1c0.7-0.7 1-1.6 1-2.8s-0.3-2.1-1-2.8-1.5-1-2.4-1-1.7 0.4-2.4 1c-0.7 0.7-1 1.6-1 2.8s0.3 2.1 1 2.8zm9.5 2.5v-10.6h1.9v1.5h0.1c0.3-0.5 0.8-0.9 1.4-1.3s1.2-0.5 1.9-0.5c1.6 0 2.8 0.7 3.3 2 0.9-1.3 2.1-2 3.7-2 1.3 0 2.2 0.4 2.8 1.2s1 1.9 1 3.2v6.5h-2v-6.2c0-1.1-0.2-1.8-0.6-2.3-0.4-0.4-1-0.7-1.8-0.7s-1.4 0.3-1.9 1-0.8 1.4-0.8 2.3v5.8h-2v-6.2c0-1.1-0.2-1.8-0.6-2.3-0.4-0.4-1-0.7-1.8-0.7s-1.4 0.3-1.9 1-0.8 1.4-0.8 2.3v5.8zm23.1 0.4c-1.6 0-2.9-0.5-3.9-1.6s-1.5-2.4-1.5-4c0-1.5 0.5-2.9 1.5-4s2.2-1.7 3.7-1.7c1.6 0 2.8 0.5 3.8 1.5 0.9 1 1.4 2.4 1.4 4.1v0.4h-8.4c0.1 1.1 0.4 1.9 1.1 2.5s1.4 0.9 2.3 0.9c1.4 0 2.4-0.6 2.9-1.8l1.8 0.7c-0.3 0.8-0.9 1.5-1.7 2.1s-1.8 0.9-3 0.9zm2.9-6.9c0-0.6-0.3-1.2-0.8-1.7-0.5-0.6-1.3-0.8-2.3-0.8-0.7 0-1.4 0.2-1.9 0.7s-0.9 1.1-1.1 1.9h6.1zm26.1-8.9-4.1 15.4h-2l-3.3-10.2h-0.1l-3.3 10.2h-2l-4.3-15.4h2.1l3.3 12.2h0.1l3.3-10.1h1.9l3.3 10.1h0.1l3.1-12.2zm5.2 15.8c-1.6 0-2.9-0.5-3.9-1.6s-1.5-2.4-1.5-4c0-1.5 0.5-2.9 1.5-4s2.2-1.7 3.7-1.7c1.6 0 2.8 0.5 3.8 1.5 0.9 1 1.4 2.4 1.4 4.1v0.4h-8.4c0.1 1.1 0.4 1.9 1.1 2.5s1.4 0.9 2.3 0.9c1.4 0 2.4-0.6 2.9-1.8l1.8 0.7c-0.3 0.8-0.9 1.5-1.7 2.1-0.9 0.6-1.9 0.9-3 0.9zm2.8-6.9c0-0.6-0.3-1.2-0.8-1.7-0.5-0.6-1.3-0.8-2.3-0.8-0.7 0-1.4 0.2-1.9 0.7s-0.9 1.1-1.1 1.9h6.1zm9.5 6.9c-0.8 0-1.5-0.2-2.2-0.5-0.6-0.3-1.1-0.8-1.4-1.3h-0.1v1.5h-1.9v-15.4h2v4.9l-0.1 1.5h0.1c0.3-0.5 0.8-1 1.4-1.3s1.4-0.5 2.2-0.5c1.4 0 2.5 0.5 3.5 1.6s1.5 2.4 1.5 4-0.5 2.9-1.5 4c-0.9 0.9-2.1 1.5-3.5 1.5zm-0.3-1.8c0.9 0 1.7-0.4 2.4-1 0.7-0.7 1-1.6 1-2.8s-0.3-2.1-1-2.8-1.5-1-2.4-1-1.7 0.3-2.4 1-1 1.6-1 2.8 0.3 2.1 1 2.8c0.7 0.6 1.5 1 2.4 1zm16 1.8c-1.1 0-2.2-0.4-3.3-1.1s-1.8-1.8-2.1-3.1l1.8-0.7c0.2 0.8 0.7 1.6 1.3 2.1s1.4 0.9 2.3 0.9 1.6-0.2 2.2-0.7 0.9-1.1 0.9-1.8c0-0.9-0.3-1.5-0.9-2s-1.6-0.9-2.9-1.3c-1.4-0.4-2.4-1-3.1-1.7s-1.1-1.6-1.1-2.6c0-1.1 0.4-2.1 1.3-2.9s2-1.2 3.4-1.2c1.3 0 2.4 0.3 3.2 1s1.3 1.4 1.6 2.1l-1.8 0.8c-0.1-0.5-0.4-0.9-1-1.4-0.5-0.4-1.2-0.6-2-0.6s-1.4 0.2-1.9 0.6-0.8 1-0.8 1.6 0.2 1.1 0.7 1.5 1.2 0.8 2.2 1.1c0.8 0.2 1.4 0.5 1.9 0.7s1 0.5 1.5 0.9 0.9 0.9 1.2 1.4c0.3 0.6 0.4 1.2 0.4 2s-0.2 1.4-0.5 2-0.7 1.1-1.2 1.4-1.1 0.6-1.7 0.8c-0.4 0.1-1 0.2-1.6 0.2zm11.3-0.2c-1.1 0-1.9-0.3-2.5-0.9s-0.9-1.4-0.9-2.5v-5.5h-1.9v-1.8h1.9v-3.2h2v3.2h2.6v1.8h-2.6v5.4c0 1.1 0.5 1.7 1.4 1.7 0.4 0 0.7-0.1 0.9-0.2l0.7 1.7c-0.5 0.2-1 0.3-1.6 0.3zm3.8-9.5c1-1.1 2.3-1.6 3.9-1.6s2.9 0.5 3.9 1.6 1.5 2.4 1.5 4-0.5 3-1.5 4c-1 1.1-2.3 1.6-3.9 1.6s-2.9-0.5-3.9-1.6-1.5-2.4-1.5-4 0.5-2.9 1.5-4zm1.5 6.8c0.7 0.7 1.5 1 2.4 1s1.7-0.4 2.4-1c0.7-0.7 1-1.6 1-2.8s-0.3-2.1-1-2.8-1.5-1-2.4-1-1.7 0.4-2.4 1c-0.7 0.7-1 1.6-1 2.8s0.3 2.1 1 2.8zm11.5 2.5h-2v-10.6h1.9v1.7h0.1c0.2-0.6 0.6-1.1 1.2-1.4 0.6-0.4 1.2-0.6 1.8-0.6s1.1 0.1 1.5 0.3l-0.8 1.9c-0.3-0.1-0.6-0.2-1.1-0.2-0.7 0-1.4 0.3-1.9 0.9-0.6 0.6-0.8 1.3-0.8 2.2v5.8zm9.9 0.4c-1.6 0-2.9-0.5-3.9-1.6s-1.5-2.4-1.5-4c0-1.5 0.5-2.9 1.5-4s2.2-1.7 3.7-1.7c1.6 0 2.8 0.5 3.8 1.5 0.9 1 1.4 2.4 1.4 4.1v0.4h-8.4c0.1 1.1 0.4 1.9 1.1 2.5s1.4 0.9 2.3 0.9c1.4 0 2.4-0.6 2.9-1.8l1.8 0.7c-0.3 0.8-0.9 1.5-1.7 2.1s-1.8 0.9-3 0.9zm2.9-6.9c0-0.6-0.3-1.2-0.8-1.7-0.5-0.6-1.3-0.8-2.3-0.8-0.7 0-1.4 0.2-1.9 0.7s-0.9 1.1-1.1 1.9h6.1zm-171.8-17.5 4.4-11.7h1.7l4.4 11.7h-1.6l-1.1-3.2h-4.9l-1.1 3.2zm3.4-4.5h3.9l-1.9-5.3h-0.1zm9.8 4.5-3.2-8h1.6l2.3 6.2 2.4-6.2h1.6l-3.3 8zm8.1 0.3c-0.8 0-1.6-0.2-2.1-0.7-0.6-0.5-0.9-1.1-0.9-1.9 0-0.9 0.3-1.5 1-2.1 0.7-0.5 1.5-0.7 2.5-0.7 0.9 0 1.6 0.2 2.2 0.5v-0.2c0-0.6-0.2-1.1-0.6-1.4-0.4-0.4-0.9-0.5-1.5-0.5-0.4 0-0.8 0.1-1.2 0.3s-0.6 0.5-0.7 0.8l-1.4-0.6c0.2-0.5 0.6-0.9 1.1-1.3s1.3-0.6 2.2-0.6c1 0 1.9 0.3 2.5 0.9 0.7 0.6 1 1.4 1 2.5v4.8h-1.4v-1.1h-0.1c-0.5 0.8-1.4 1.3-2.6 1.3zm0.3-1.4c0.6 0 1.2-0.2 1.7-0.7s0.8-1 0.8-1.6c-0.4-0.4-1.1-0.5-1.9-0.5-0.7 0-1.3 0.2-1.7 0.5s-0.6 0.7-0.6 1.1 0.2 0.7 0.5 0.9c0.4 0.2 0.8 0.3 1.2 0.3zm7.2-8.9c-0.2 0.2-0.5 0.3-0.8 0.3s-0.5-0.1-0.8-0.3c-0.2-0.2-0.3-0.5-0.3-0.8s0.1-0.5 0.3-0.8c0.2-0.2 0.5-0.3 0.8-0.3s0.5 0.1 0.8 0.3c0.2 0.2 0.3 0.5 0.3 0.8s-0.1 0.6-0.3 0.8zm0 10h-1.5v-8h1.5zm3.5 0h-1.5v-11.6h1.5zm4.2 0.3c-0.8 0-1.6-0.2-2.1-0.7-0.6-0.5-0.9-1.1-0.9-1.9 0-0.9 0.3-1.5 1-2.1 0.7-0.5 1.5-0.7 2.5-0.7 0.9 0 1.6 0.2 2.2 0.5v-0.2c0-0.6-0.2-1.1-0.6-1.4-0.4-0.4-0.9-0.5-1.5-0.5-0.4 0-0.8 0.1-1.2 0.3s-0.6 0.5-0.7 0.8l-1.4-0.6c0.2-0.5 0.6-0.9 1.1-1.3s1.3-0.6 2.2-0.6c1 0 1.9 0.3 2.5 0.9 0.7 0.6 1 1.4 1 2.5v4.8h-1.4v-1.1h-0.1c-0.5 0.8-1.4 1.3-2.6 1.3zm0.3-1.4c0.6 0 1.2-0.2 1.7-0.7s0.8-1 0.8-1.6c-0.4-0.4-1.1-0.5-1.9-0.5-0.7 0-1.3 0.2-1.7 0.5s-0.6 0.7-0.6 1.1 0.2 0.7 0.5 0.9c0.4 0.2 0.8 0.3 1.2 0.3zm9.8 1.4c-0.6 0-1.2-0.1-1.6-0.4-0.5-0.3-0.8-0.6-1.1-1h-0.1v1.1h-1.4v-11.6h1.5v3.7l-0.1 1.1h0.1c0.2-0.4 0.6-0.7 1.1-1s1-0.4 1.6-0.4c1 0 1.9 0.4 2.7 1.2s1.1 1.8 1.1 3-0.4 2.2-1.1 3c-0.8 0.9-1.7 1.3-2.7 1.3zm-0.2-1.4c0.7 0 1.3-0.3 1.8-0.8s0.8-1.2 0.8-2.1-0.2-1.6-0.8-2.1c-0.5-0.5-1.1-0.8-1.8-0.8s-1.3 0.3-1.8 0.8-0.7 1.2-0.7 2.1 0.2 1.6 0.7 2.1c0.4 0.6 1 0.8 1.8 0.8zm6.8 1.1h-1.5v-11.6h1.5zm5.4 0.3c-1.2 0-2.2-0.4-2.9-1.2-0.8-0.8-1.1-1.8-1.1-3.1 0-1.2 0.4-2.2 1.1-3s1.7-1.3 2.8-1.3c1.2 0 2.1 0.4 2.9 1.2 0.7 0.8 1.1 1.8 1.1 3.1v0.3h-6.3c0 0.8 0.3 1.4 0.8 1.9s1.1 0.7 1.7 0.7c1.1 0 1.8-0.5 2.2-1.4l1.3 0.6c-0.3 0.6-0.7 1.1-1.3 1.6-0.7 0.4-1.5 0.6-2.3 0.6zm2.1-5.2c0-0.5-0.2-0.9-0.6-1.3s-1-0.6-1.7-0.6c-0.6 0-1 0.2-1.4 0.5-0.4 0.4-0.7 0.8-0.8 1.4zm8.2-5.1c-0.2 0.2-0.5 0.3-0.8 0.3s-0.5-0.1-0.8-0.3c-0.2-0.2-0.3-0.5-0.3-0.8s0.1-0.5 0.3-0.8c0.2-0.2 0.5-0.3 0.8-0.3s0.5 0.1 0.8 0.3c0.2 0.2 0.3 0.5 0.3 0.8s-0.1 0.6-0.3 0.8zm0 10h-1.5v-8h1.5zm3.4-8v1.1h0.1c0.2-0.4 0.6-0.7 1-1 0.5-0.3 1-0.4 1.5-0.4 1 0 1.7 0.3 2.3 0.9 0.5 0.6 0.8 1.4 0.8 2.5v4.9h-1.5v-4.7c0-1.5-0.7-2.2-2-2.2-0.6 0-1.1 0.2-1.5 0.7s-0.6 1.1-0.6 1.7v4.4h-1.5v-8zm14.5 8.2c-0.8 0-1.5-0.2-1.9-0.7-0.4-0.4-0.7-1.1-0.7-1.9v-4.2h-1.4v-1.4h1.4v-2.5h1.5v2.5h2v1.4h-2v4.1c0 0.9 0.4 1.3 1.1 1.3 0.3 0 0.5 0 0.7-0.1l0.5 1.3c-0.3 0.1-0.7 0.2-1.2 0.2zm3.9-11.8v3.7l-0.1 1.1h0.1c0.2-0.4 0.6-0.7 1-1 0.5-0.3 1-0.4 1.5-0.4 1 0 1.7 0.3 2.3 0.9 0.5 0.6 0.8 1.4 0.8 2.5v4.9h-1.5v-4.7c0-1.5-0.7-2.2-2-2.2-0.6 0-1.1 0.2-1.5 0.7s-0.6 1.1-0.6 1.7v4.4h-1.5v-11.6zm11 11.9c-1.2 0-2.2-0.4-2.9-1.2-0.8-0.8-1.1-1.8-1.1-3.1 0-1.2 0.4-2.2 1.1-3s1.7-1.3 2.8-1.3c1.2 0 2.1 0.4 2.9 1.2 0.7 0.8 1.1 1.8 1.1 3.1v0.3h-6.3c0 0.8 0.3 1.4 0.8 1.9s1.1 0.7 1.7 0.7c1.1 0 1.8-0.5 2.2-1.4l1.3 0.6c-0.3 0.6-0.7 1.1-1.3 1.6-0.7 0.4-1.5 0.6-2.3 0.6zm2.1-5.2c0-0.5-0.2-0.9-0.6-1.3s-1-0.6-1.7-0.6c-0.6 0-1 0.2-1.4 0.5-0.4 0.4-0.7 0.8-0.8 1.4z"/>
	<defs>
		<path id="SVGID_1_" d="m46 82.2v51.1c0 2.4 2 4.4 4.4 4.4h55.5c2.4 0 4.4-2 4.4-4.4v-51.1zm39.4 11.7h-14.6c-1.6 0-2.9-1.3-2.9-2.9s1.3-2.9 2.9-2.9h14.6c1.6 0 2.9 1.3 2.9 2.9s-1.3 2.9-2.9 2.9z"/>
	</defs>
	<clipPath id="SVGID_2_">
		<use xlink:href="#SVGID_1_"/>
	</clipPath>
	<path transform="translate(-36.755 -71.607)" d="m46 82.2h64.3v55.5h-64.3z" clip-path="url(#SVGID_2_)" style="fill:#eeedee"/>
	<defs>
		<path id="SVGID_3_" d="m46 82.2v51.1c0 2.4 2 4.4 4.4 4.4h55.5c2.4 0 4.4-2 4.4-4.4v-51.1zm39.4 11.7h-14.6c-1.6 0-2.9-1.3-2.9-2.9s1.3-2.9 2.9-2.9h14.6c1.6 0 2.9 1.3 2.9 2.9s-1.3 2.9-2.9 2.9z"/>
	</defs>
	<clipPath id="SVGID_4_">
		<use xlink:href="#SVGID_3_"/>
	</clipPath>
	<path transform="translate(-36.755 -71.607)" d="m85.4 88.1h-14.6c-1.6 0-2.9 1.3-2.9 2.9s1.3 2.9 2.9 2.9h14.6c1.6 0 2.9-1.3 2.9-2.9s-1.3-2.9-2.9-2.9z" clip-path="url(#SVGID_4_)" style="fill:#ffffff"/>
	<defs>
		<path id="SVGID_5_" d="m46 82.2v51.1c0 2.4 2 4.4 4.4 4.4h55.5c2.4 0 4.4-2 4.4-4.4v-51.1zm39.4 11.7h-14.6c-1.6 0-2.9-1.3-2.9-2.9s1.3-2.9 2.9-2.9h14.6c1.6 0 2.9 1.3 2.9 2.9s-1.3 2.9-2.9 2.9z"/>
	</defs>
	<clipPath id="SVGID_6_">
		<use xlink:href="#SVGID_5_"/>
	</clipPath>
	<g transform="translate(-36.755 -71.607)" clip-path="url(#SVGID_6_)">
		<defs>
			<circle id="SVGID_7_" transform="matrix(.07089 -.9975 .9975 .07089 -60.45 201.84)" cx="78.1" cy="133.4" r="27.8"/>
		</defs>
		<clipPath id="SVGID_8_">
			<use xlink:href="#SVGID_7_"/>
		</clipPath>
		<defs>
			<circle id="SVGID_9_" transform="matrix(.07089 -.9975 .9975 .07089 -60.45 201.84)" cx="78.1" cy="133.4" r="27.8"/>
		</defs>
		<defs>
			<circle id="SVGID_10_" transform="matrix(.07089 -.9975 .9975 .07089 -60.45 201.84)" cx="78.1" cy="133.4" r="27.8"/>
		</defs>
		<clipPath id="SVGID_11_">
			<use xlink:href="#SVGID_9_"/>
		</clipPath>
		<clipPath id="SVGID_12_" clip-path="url(#SVGID_11_)">
			<use xlink:href="#SVGID_10_"/>
		</clipPath>
		<defs>
			<circle id="SVGID_13_" transform="matrix(.07089 -.9975 .9975 .07089 -60.45 201.84)" cx="78.1" cy="133.4" r="27.8"/>
		</defs>
		<defs>
			<circle id="SVGID_14_" transform="matrix(.07089 -.9975 .9975 .07089 -60.45 201.84)" cx="78.1" cy="133.4" r="27.8"/>
		</defs>
		<defs>
			<circle id="SVGID_15_" transform="matrix(.07089 -.9975 .9975 .07089 -60.45 201.84)" cx="78.1" cy="133.4" r="27.8"/>
		</defs>
		<clipPath id="SVGID_16_">
			<use xlink:href="#SVGID_13_"/>
		</clipPath>
		<clipPath id="SVGID_17_" clip-path="url(#SVGID_16_)">
			<use xlink:href="#SVGID_14_"/>
		</clipPath>
		<clipPath id="SVGID_18_" clip-path="url(#SVGID_17_)">
			<use xlink:href="#SVGID_15_"/>
		</clipPath>
		<defs>
			<circle id="SVGID_19_" transform="matrix(.07089 -.9975 .9975 .07089 -60.45 201.84)" cx="78.1" cy="133.4" r="27.8"/>
		</defs>
		<defs>
			<circle id="SVGID_20_" transform="matrix(.07089 -.9975 .9975 .07089 -60.45 201.84)" cx="78.1" cy="133.4" r="27.8"/>
		</defs>
		<defs>
			<circle id="SVGID_21_" transform="matrix(.07089 -.9975 .9975 .07089 -60.45 201.84)" cx="78.1" cy="133.4" r="27.8"/>
		</defs>
		<defs>
			<circle id="SVGID_22_" transform="matrix(.07089 -.9975 .9975 .07089 -60.45 201.84)" cx="78.1" cy="133.4" r="27.8"/>
		</defs>
		<clipPath id="SVGID_23_">
			<use xlink:href="#SVGID_19_"/>
		</clipPath>
		<clipPath id="SVGID_24_" clip-path="url(#SVGID_23_)">
			<use xlink:href="#SVGID_20_"/>
		</clipPath>
		<clipPath id="SVGID_25_" clip-path="url(#SVGID_24_)">
			<use xlink:href="#SVGID_21_"/>
		</clipPath>
		<clipPath id="SVGID_26_" clip-path="url(#SVGID_25_)">
			<use xlink:href="#SVGID_22_"/>
		</clipPath>
		<path d="m54.8 105.6v34.1h12.4l10.9-18.9h27.8v-15.1h-51.1zm0 0v34.1h12.4l10.9-18.9h27.8v-15.1h-51.1z" clip-path="url(#SVGID_26_)" style="fill:#dc4637"/>
		<defs>
			<circle id="SVGID_27_" transform="matrix(.07089 -.9975 .9975 .07089 -60.45 201.84)" cx="78.1" cy="133.4" r="27.8"/>
		</defs>
		<defs>
			<circle id="SVGID_28_" transform="matrix(.07089 -.9975 .9975 .07089 -60.45 201.84)" cx="78.1" cy="133.4" r="27.8"/>
		</defs>
		<defs>
			<circle id="SVGID_29_" transform="matrix(.07089 -.9975 .9975 .07089 -60.45 201.84)" cx="78.1" cy="133.4" r="27.8"/>
		</defs>
		<defs>
			<circle id="SVGID_30_" transform="matrix(.07089 -.9975 .9975 .07089 -60.45 201.84)" cx="78.1" cy="133.4" r="27.8"/>
		</defs>
		<clipPath id="SVGID_31_">
			<use xlink:href="#SVGID_27_"/>
		</clipPath>
		<clipPath id="SVGID_32_" clip-path="url(#SVGID_31_)">
			<use xlink:href="#SVGID_28_"/>
		</clipPath>
		<clipPath id="SVGID_33_" clip-path="url(#SVGID_32_)">
			<use xlink:href="#SVGID_29_"/>
		</clipPath>
		<clipPath id="SVGID_34_" clip-path="url(#SVGID_33_)">
			<use xlink:href="#SVGID_30_"/>
		</clipPath>
		<path d="m50.4 161.1h26.4l12.2-12.2v-9.2h-21.8l-16.8-28.9zm0 0h26.4l12.2-12.2v-9.2h-21.8l-16.8-28.9z" clip-path="url(#SVGID_34_)" style="fill:#0f9d58"/>
		<defs>
			<circle id="SVGID_35_" transform="matrix(.07089 -.9975 .9975 .07089 -60.45 201.84)" cx="78.1" cy="133.4" r="27.8"/>
		</defs>
		<defs>
			<circle id="SVGID_36_" transform="matrix(.07089 -.9975 .9975 .07089 -60.45 201.84)" cx="78.1" cy="133.4" r="27.8"/>
		</defs>
		<defs>
			<circle id="SVGID_37_" transform="matrix(.07089 -.9975 .9975 .07089 -60.45 201.84)" cx="78.1" cy="133.4" r="27.8"/>
		</defs>
		<defs>
			<circle id="SVGID_38_" transform="matrix(.07089 -.9975 .9975 .07089 -60.45 201.84)" cx="78.1" cy="133.4" r="27.8"/>
		</defs>
		<clipPath id="SVGID_39_">
			<use xlink:href="#SVGID_35_"/>
		</clipPath>
		<clipPath id="SVGID_40_" clip-path="url(#SVGID_39_)">
			<use xlink:href="#SVGID_36_"/>
		</clipPath>
		<clipPath id="SVGID_41_" clip-path="url(#SVGID_40_)">
			<use xlink:href="#SVGID_37_"/>
		</clipPath>
		<clipPath id="SVGID_42_" clip-path="url(#SVGID_41_)">
			<use xlink:href="#SVGID_38_"/>
		</clipPath>
		<path d="m78.1 120.8 10.9 18.9-12.3 21.4h29.1v-40.4h-27.7zm0 0 10.9 18.9-12.3 21.4h29.1v-40.4h-27.7z" clip-path="url(#SVGID_42_)" style="fill:#ffce41"/>
		<defs>
			<circle id="SVGID_43_" transform="matrix(.07089 -.9975 .9975 .07089 -60.45 201.84)" cx="78.1" cy="133.4" r="27.8"/>
		</defs>
		<defs>
			<circle id="SVGID_44_" transform="matrix(.07089 -.9975 .9975 .07089 -60.45 201.84)" cx="78.1" cy="133.4" r="27.8"/>
		</defs>
		<defs>
			<circle id="SVGID_45_" transform="matrix(.07089 -.9975 .9975 .07089 -60.45 201.84)" cx="78.1" cy="133.4" r="27.8"/>
		</defs>
		<defs>
			<circle id="SVGID_46_" transform="matrix(.07089 -.9975 .9975 .07089 -60.45 201.84)" cx="78.1" cy="133.4" r="27.8"/>
		</defs>
		<clipPath id="SVGID_47_">
			<use xlink:href="#SVGID_43_"/>
		</clipPath>
		<clipPath id="SVGID_48_" clip-path="url(#SVGID_47_)">
			<use xlink:href="#SVGID_44_"/>
		</clipPath>
		<clipPath id="SVGID_49_" clip-path="url(#SVGID_48_)">
			<use xlink:href="#SVGID_45_"/>
		</clipPath>
		<clipPath id="SVGID_50_" clip-path="url(#SVGID_49_)">
			<use xlink:href="#SVGID_46_"/>
		</clipPath>
		<g clip-path="url(#SVGID_50_)">
			<circle cx="78.1" cy="133.4" r="12.6" style="fill:#f2f2f2"/>
			<circle cx="78.1" cy="133.4" r="10.1" style="fill:#557ebf"/>
		</g>
		<defs>
			<path id="SVGID_51_" d="m46 82.2v51.1c0 2.4 2 4.4 4.4 4.4h55.5c2.4 0 4.4-2 4.4-4.4v-51.1zm39.4 11.7h-14.6c-1.6 0-2.9-1.3-2.9-2.9s1.3-2.9 2.9-2.9h14.6c1.6 0 2.9 1.3 2.9 2.9s-1.3 2.9-2.9 2.9z"/>
		</defs>
		<clipPath id="SVGID_52_">
			<use xlink:href="#SVGID_51_"/>
		</clipPath>
		<path d="m46 82.2h64.3v27.8h-64.3z" clip-path="url(#SVGID_52_)" style="fill-opacity:.05;fill:#212121"/>
		<path class="st26" d="m46 109.6h64.3v0.4h-64.3z"/>
		<path d="m46 110h64.3v0.4h-64.3z" style="fill-opacity:.05;fill:#ffffff"/>
		<path class="st26" d="m85.4 93.9h-14.6c-1.5 0-2.8-1.2-2.9-2.7v0.2c0 1.6 1.3 2.9 2.9 2.9h14.6c1.6 0 2.9-1.3 2.9-2.9v-0.2c-0.1 1.5-1.3 2.7-2.9 2.7zm-39.4-11.7v0.4h64.3v-0.4z"/>
		<path d="m70.8 88.1h14.6c1.5 0 2.8 1.2 2.9 2.7v-0.2c0-1.6-1.3-2.9-2.9-2.9h-14.6c-1.6 0-2.9 1.3-2.9 2.9v0.2c0.1-1.5 1.4-2.7 2.9-2.7zm35.1 49.3h-55.5c-2.4 0-4.4-2-4.4-4.4v0.4c0 2.4 2 4.4 4.4 4.4h55.5c2.4 0 4.4-2 4.4-4.4v-0.4c0 2.4-2 4.4-4.4 4.4z" style="fill-opacity:.1;fill:#231f20"/>
		<radialGradient id="SVGID_53_" cx="1152.2" cy="1015" r="332.44" gradientTransform="matrix(.25 0 0 .25 -242.25 -171.75)" gradientUnits="userSpaceOnUse">
			<stop style="stop-color:#fff;stop-opacity:.1" offset="0"/>
			<stop style="stop-color:#fff;stop-opacity:0" offset="1"/>
		</radialGradient>
		<path d="m46 82.2v51.1c0 2.4 2 4.4 4.4 4.4h55.5c2.4 0 4.4-2 4.4-4.4v-51.1zm39.4 11.7h-14.6c-1.6 0-2.9-1.3-2.9-2.9s1.3-2.9 2.9-2.9h14.6c1.6 0 2.9 1.3 2.9 2.9s-1.3 2.9-2.9 2.9z" style="fill:url(#SVGID_53_)"/>
		<path d="m43.1 74.9h70.1v70.1h-70.1z" style="fill:none"/>
	</g>
<rect x=".75" y=".75" width="276.35" height="72.614" style="fill:none;stroke-width:1.5;stroke:#808080"/></svg>
