<?xml version="1.0" encoding="UTF-8" standalone="no"?>
<svg
   data-name="Layer 1"
   version="1.1"
   viewBox="0 0 888.11 297.04"
   id="svg27"
   xmlns:xlink="http://www.w3.org/1999/xlink"
   xmlns="http://www.w3.org/2000/svg"
   xmlns:svg="http://www.w3.org/2000/svg">
  <defs
     id="defs1">
    <radialGradient
       id="radialGradient168"
       cx="57.45"
       cy="779.2"
       r="4.99"
       gradientTransform="matrix(58.22 0 0 -58.22 -3038.6 45711)"
       gradientUnits="userSpaceOnUse"
       xlink:href="#Ads%C4%B1z_degrade_3" />
    <radialGradient
       id="radialGradient169"
       cx="56.25"
       cy="777.86"
       r="4.99"
       gradientTransform="matrix(58.22 0 0 -58.22 -3056.1 45731)"
       gradientUnits="userSpaceOnUse"
       xlink:href="#Ads%C4%B1z_degrade_4" />
    <radialGradient
       id="radialGradient170"
       cx="52.35"
       cy="781.83"
       r="4.99"
       gradientTransform="matrix(25.95 0 0 -25.95 -1115.4 20603)"
       gradientUnits="userSpaceOnUse"
       xlink:href="#Ads%C4%B1z_degrade_5" />
    <radialGradient
       id="radialGradient171"
       cx="49.23"
       cy="775.43"
       r="4.99"
       gradientTransform="matrix(22.17 0 0 -22.17 -898.51 17699)"
       gradientUnits="userSpaceOnUse"
       xlink:href="#Ads%C4%B1z_degrade_6" />
    <radialGradient
       id="radialGradient172"
       cx="40.88"
       cy="778.85"
       r="4.99"
       gradientTransform="matrix(11.77 0 0 -13.08 -271.18 10610)"
       gradientUnits="userSpaceOnUse"
       xlink:href="#Ads%C4%B1z_degrade_7" />
    <radialGradient
       id="radialGradient173"
       cx="46.21"
       cy="782.75"
       r="4.99"
       gradientTransform="matrix(16.14 0 0 -16.14 -532.52 12973)"
       gradientUnits="userSpaceOnUse"
       xlink:href="#Ads%C4%B1z_degrade_8" />
    <radialGradient
       id="radialGradient174"
       cx="57.86"
       cy="779.55"
       r="4.99"
       gradientTransform="matrix(76.78 0 0 -76.78 -4156.1 60139)"
       gradientUnits="userSpaceOnUse"
       xlink:href="#Ads%C4%B1z_degrade_9" />
    <radialGradient
       id="radialGradient175"
       cx="58.23"
       cy="779.06"
       r="4.99"
       gradientTransform="matrix(107.38 0 0 -107.38 -5999 83952)"
       gradientUnits="userSpaceOnUse"
       xlink:href="#Ads%C4%B1z_degrade_10" />
    <radialGradient
       id="radialGradient176"
       cx="54.97"
       cy="779.22"
       r="4.99"
       gradientTransform="matrix(44.08 0 0 -44.08 -2208.9 34718)"
       gradientUnits="userSpaceOnUse"
       xlink:href="#Ads%C4%B1z_degrade_11" />
    <radialGradient
       id="radialGradient177"
       cx="56.67"
       cy="778.82"
       r="4.99"
       gradientTransform="matrix(52.98 0 0 -52.98 -2731.6 41647)"
       gradientUnits="userSpaceOnUse"
       xlink:href="#Ads%C4%B1z_degrade_12" />
    <linearGradient
       id="linearGradient168"
       x1="280.27"
       x2="103.65"
       y1="593.6"
       y2="411.67"
       gradientTransform="matrix(1,0,0,-1,24.94,952.36)"
       gradientUnits="userSpaceOnUse"
       xlink:href="#Ads%C4%B1z_degrade_2" />
    <linearGradient
       id="linearGradient177"
       x1="269.23"
       x2="128.57"
       y1="592.47"
       y2="428.37"
       gradientTransform="matrix(1,0,0,-1,24.94,952.36)"
       gradientUnits="userSpaceOnUse"
       xlink:href="#Ads%C4%B1z_degrade_13" />
    <style
       id="style1">.cls-5,
         .cls-7 {
            stroke-width: 0
         }

         .cls-5 {
            fill-rule: evenodd
         }</style>
    <linearGradient
       id="Adsız_degrade_2"
       data-name="Adsız degrade 2"
       x1="280.26999"
       y1="593.59998"
       x2="103.65"
       y2="411.67001"
       gradientTransform="matrix(1,0,0,-1,24.94,952.36)"
       gradientUnits="userSpaceOnUse">
      <stop
         offset="0"
         stop-color="#fff44f"
         id="stop40" />
      <stop
         offset=".05"
         stop-color="#fff44f"
         id="stop41" />
      <stop
         offset=".37"
         stop-color="#ff980e"
         id="stop42" />
      <stop
         offset=".53"
         stop-color="#ff3647"
         id="stop43" />
      <stop
         offset=".7"
         stop-color="#e31587"
         id="stop44" />
      <stop
         offset="1"
         stop-color="#e31587"
         id="stop45" />
    </linearGradient>
    <radialGradient
       xlink:href="#Ads%C4%B1z_degrade_3"
       id="radialGradient168-9"
       gradientUnits="userSpaceOnUse"
       gradientTransform="matrix(58.22,0,0,-58.22,-3038.63,45711.44)"
       cx="57.450001"
       cy="779.20001"
       fx="57.450001"
       fy="779.20001"
       r="4.9899998" />
    <radialGradient
       id="Adsız_degrade_3"
       data-name="Adsız degrade 3"
       cx="57.450001"
       cy="779.20001"
       fx="57.450001"
       fy="779.20001"
       r="4.9899998"
       gradientTransform="matrix(58.22,0,0,-58.22,-3038.63,45711.44)"
       gradientUnits="userSpaceOnUse">
      <stop
         offset="0"
         stop-color="#ffbd4f"
         id="stop46" />
      <stop
         offset=".13"
         stop-color="#ffbd4f"
         id="stop47" />
      <stop
         offset=".28"
         stop-color="#ff980e"
         id="stop48" />
      <stop
         offset=".47"
         stop-color="#ff3750"
         id="stop49" />
      <stop
         offset=".78"
         stop-color="#eb0878"
         id="stop50" />
      <stop
         offset=".86"
         stop-color="#e50080"
         id="stop51" />
      <stop
         offset="1"
         stop-color="#e50080"
         id="stop52" />
    </radialGradient>
    <radialGradient
       xlink:href="#Ads%C4%B1z_degrade_4"
       id="radialGradient169-4"
       gradientUnits="userSpaceOnUse"
       gradientTransform="matrix(58.22,0,0,-58.22,-3056.13,45731.05)"
       cx="56.25"
       cy="777.85999"
       fx="56.25"
       fy="777.85999"
       r="4.9899998" />
    <radialGradient
       id="Adsız_degrade_4"
       data-name="Adsız degrade 4"
       cx="56.25"
       cy="777.85999"
       fx="56.25"
       fy="777.85999"
       r="4.9899998"
       gradientTransform="matrix(58.22,0,0,-58.22,-3056.13,45731.05)"
       gradientUnits="userSpaceOnUse">
      <stop
         offset="0"
         stop-color="#960e18"
         id="stop53" />
      <stop
         offset=".3"
         stop-color="#960e18"
         id="stop54" />
      <stop
         offset=".35"
         stop-color="#b11927"
         stop-opacity=".74"
         id="stop55" />
      <stop
         offset=".43"
         stop-color="#db293d"
         stop-opacity=".34"
         id="stop56" />
      <stop
         offset=".5"
         stop-color="#f5334b"
         stop-opacity=".09"
         id="stop57" />
      <stop
         offset=".53"
         stop-color="#ff3750"
         stop-opacity="0"
         id="stop58" />
      <stop
         offset="1"
         stop-color="#ff3750"
         stop-opacity="0"
         id="stop59" />
    </radialGradient>
    <radialGradient
       xlink:href="#Ads%C4%B1z_degrade_5"
       id="radialGradient170-8"
       gradientUnits="userSpaceOnUse"
       gradientTransform="matrix(25.95,0,0,-25.95,-1115.37,20602.52)"
       cx="52.349998"
       cy="781.83002"
       fx="52.349998"
       fy="781.83002"
       r="4.9899998" />
    <radialGradient
       id="Adsız_degrade_5"
       data-name="Adsız degrade 5"
       cx="52.349998"
       cy="781.83002"
       fx="52.349998"
       fy="781.83002"
       r="4.9899998"
       gradientTransform="matrix(25.95,0,0,-25.95,-1115.37,20602.52)"
       gradientUnits="userSpaceOnUse">
      <stop
         offset="0"
         stop-color="#fff44f"
         id="stop60" />
      <stop
         offset=".13"
         stop-color="#fff44f"
         id="stop61" />
      <stop
         offset=".53"
         stop-color="#ff980e"
         id="stop62" />
      <stop
         offset="1"
         stop-color="#ff980e"
         id="stop63" />
    </radialGradient>
    <radialGradient
       xlink:href="#Ads%C4%B1z_degrade_6"
       id="radialGradient171-8"
       gradientUnits="userSpaceOnUse"
       gradientTransform="matrix(22.17,0,0,-22.17,-898.51,17698.9)"
       cx="49.23"
       cy="775.42999"
       fx="49.23"
       fy="775.42999"
       r="4.9899998" />
    <radialGradient
       id="Adsız_degrade_6"
       data-name="Adsız degrade 6"
       cx="49.23"
       cy="775.42999"
       fx="49.23"
       fy="775.42999"
       r="4.9899998"
       gradientTransform="matrix(22.17,0,0,-22.17,-898.51,17698.9)"
       gradientUnits="userSpaceOnUse">
      <stop
         offset="0"
         stop-color="#3a8ee6"
         id="stop64" />
      <stop
         offset=".35"
         stop-color="#3a8ee6"
         id="stop65" />
      <stop
         offset=".67"
         stop-color="#9059ff"
         id="stop66" />
      <stop
         offset="1"
         stop-color="#c139e6"
         id="stop67" />
    </radialGradient>
    <radialGradient
       xlink:href="#Ads%C4%B1z_degrade_7"
       id="radialGradient172-2"
       gradientUnits="userSpaceOnUse"
       gradientTransform="matrix(11.77,0,0,-13.08,-271.18,10609.87)"
       cx="40.880001"
       cy="778.84998"
       fx="40.880001"
       fy="778.84998"
       r="4.9899998" />
    <radialGradient
       id="Adsız_degrade_7"
       data-name="Adsız degrade 7"
       cx="40.880001"
       cy="778.84998"
       fx="40.880001"
       fy="778.84998"
       r="4.9899998"
       gradientTransform="matrix(11.77,0,0,-13.08,-271.18,10609.87)"
       gradientUnits="userSpaceOnUse">
      <stop
         offset="0"
         stop-color="#9059ff"
         stop-opacity="0"
         id="stop68" />
      <stop
         offset=".21"
         stop-color="#9059ff"
         stop-opacity="0"
         id="stop69" />
      <stop
         offset=".97"
         stop-color="#6e008b"
         stop-opacity=".6"
         id="stop70" />
      <stop
         offset="1"
         stop-color="#6e008b"
         stop-opacity=".6"
         id="stop71" />
    </radialGradient>
    <radialGradient
       xlink:href="#Ads%C4%B1z_degrade_8"
       id="radialGradient173-4"
       gradientUnits="userSpaceOnUse"
       gradientTransform="matrix(16.14,0,0,-16.14,-532.52,12972.71)"
       cx="46.209999"
       cy="782.75"
       fx="46.209999"
       fy="782.75"
       r="4.9899998" />
    <radialGradient
       id="Adsız_degrade_8"
       data-name="Adsız degrade 8"
       cx="46.209999"
       cy="782.75"
       fx="46.209999"
       fy="782.75"
       r="4.9899998"
       gradientTransform="matrix(16.14,0,0,-16.14,-532.52,12972.71)"
       gradientUnits="userSpaceOnUse">
      <stop
         offset="0"
         stop-color="#ffe226"
         id="stop72" />
      <stop
         offset=".1"
         stop-color="#ffe226"
         id="stop73" />
      <stop
         offset=".79"
         stop-color="#ff7139"
         id="stop74" />
      <stop
         offset="1"
         stop-color="#ff7139"
         id="stop75" />
    </radialGradient>
    <radialGradient
       xlink:href="#Ads%C4%B1z_degrade_9"
       id="radialGradient174-5"
       gradientUnits="userSpaceOnUse"
       gradientTransform="matrix(76.78,0,0,-76.78,-4156.14,60138.95)"
       cx="57.860001"
       cy="779.54999"
       fx="57.860001"
       fy="779.54999"
       r="4.9899998" />
    <radialGradient
       id="Adsız_degrade_9"
       data-name="Adsız degrade 9"
       cx="57.860001"
       cy="779.54999"
       fx="57.860001"
       fy="779.54999"
       r="4.9899998"
       gradientTransform="matrix(76.78,0,0,-76.78,-4156.14,60138.95)"
       gradientUnits="userSpaceOnUse">
      <stop
         offset="0"
         stop-color="#fff44f"
         id="stop76" />
      <stop
         offset=".11"
         stop-color="#fff44f"
         id="stop77" />
      <stop
         offset=".46"
         stop-color="#ff980e"
         id="stop78" />
      <stop
         offset=".72"
         stop-color="#ff3647"
         id="stop79" />
      <stop
         offset=".9"
         stop-color="#e31587"
         id="stop80" />
      <stop
         offset="1"
         stop-color="#e31587"
         id="stop81" />
    </radialGradient>
    <radialGradient
       xlink:href="#Ads%C4%B1z_degrade_10"
       id="radialGradient175-5"
       gradientUnits="userSpaceOnUse"
       gradientTransform="matrix(107.38,0,0,-107.38,-5998.96,83952.16)"
       cx="58.23"
       cy="779.06"
       fx="58.23"
       fy="779.06"
       r="4.9899998" />
    <radialGradient
       id="Adsız_degrade_10"
       data-name="Adsız degrade 10"
       cx="58.23"
       cy="779.06"
       fx="58.23"
       fy="779.06"
       r="4.9899998"
       gradientTransform="matrix(107.38,0,0,-107.38,-5998.96,83952.16)"
       gradientUnits="userSpaceOnUse">
      <stop
         offset="0"
         stop-color="#fff44f"
         id="stop82" />
      <stop
         offset=".3"
         stop-color="#ff980e"
         id="stop83" />
      <stop
         offset=".57"
         stop-color="#ff3647"
         id="stop84" />
      <stop
         offset=".74"
         stop-color="#e31587"
         id="stop85" />
      <stop
         offset="1"
         stop-color="#e31587"
         id="stop86" />
    </radialGradient>
    <radialGradient
       xlink:href="#Ads%C4%B1z_degrade_11"
       id="radialGradient176-1"
       gradientUnits="userSpaceOnUse"
       gradientTransform="matrix(44.08,0,0,-44.08,-2208.91,34717.86)"
       cx="54.970001"
       cy="779.21997"
       fx="54.970001"
       fy="779.21997"
       r="4.9899998" />
    <radialGradient
       id="Adsız_degrade_11"
       data-name="Adsız degrade 11"
       cx="54.970001"
       cy="779.21997"
       fx="54.970001"
       fy="779.21997"
       r="4.9899998"
       gradientTransform="matrix(44.08,0,0,-44.08,-2208.91,34717.86)"
       gradientUnits="userSpaceOnUse">
      <stop
         offset="0"
         stop-color="#fff44f"
         id="stop87" />
      <stop
         offset=".14"
         stop-color="#fff44f"
         id="stop88" />
      <stop
         offset=".48"
         stop-color="#ff980e"
         id="stop89" />
      <stop
         offset=".66"
         stop-color="#ff3647"
         id="stop90" />
      <stop
         offset=".9"
         stop-color="#e31587"
         id="stop91" />
      <stop
         offset="1"
         stop-color="#e31587"
         id="stop92" />
    </radialGradient>
    <radialGradient
       xlink:href="#Ads%C4%B1z_degrade_12"
       id="radialGradient177-7"
       gradientUnits="userSpaceOnUse"
       gradientTransform="matrix(52.98,0,0,-52.98,-2731.65,41647)"
       cx="56.669998"
       cy="778.82001"
       fx="56.669998"
       fy="778.82001"
       r="4.9899998" />
    <radialGradient
       id="Adsız_degrade_12"
       data-name="Adsız degrade 12"
       cx="56.669998"
       cy="778.82001"
       fx="56.669998"
       fy="778.82001"
       r="4.9899998"
       gradientTransform="matrix(52.98,0,0,-52.98,-2731.65,41647)"
       gradientUnits="userSpaceOnUse">
      <stop
         offset="0"
         stop-color="#fff44f"
         id="stop93" />
      <stop
         offset=".09"
         stop-color="#fff44f"
         id="stop94" />
      <stop
         offset=".63"
         stop-color="#ff980e"
         id="stop95" />
      <stop
         offset="1"
         stop-color="#ff980e"
         id="stop96" />
    </radialGradient>
    <linearGradient
       id="Adsız_degrade_13"
       data-name="Adsız degrade 13"
       x1="269.23001"
       y1="592.46997"
       x2="128.57001"
       y2="428.37"
       gradientTransform="matrix(1,0,0,-1,24.94,952.36)"
       gradientUnits="userSpaceOnUse">
      <stop
         offset="0"
         stop-color="#fff44f"
         stop-opacity=".8"
         id="stop97" />
      <stop
         offset=".17"
         stop-color="#fff44f"
         stop-opacity=".8"
         id="stop98" />
      <stop
         offset=".6"
         stop-color="#fff44f"
         stop-opacity="0"
         id="stop99" />
      <stop
         offset="1"
         stop-color="#fff44f"
         stop-opacity="0"
         id="stop100" />
    </linearGradient>
  </defs>
  <g
     transform="translate(-39.54 -650.36)"
     id="g27">
    <path
       d="m857.1 650.36h-761.86c-5.2 0-9.65 0.74-14.85 1.49-4.46 0.74-9.65 2.23-14.11 4.46s-8.17 5.2-11.88 8.91-6.68 7.43-8.91 11.88c-2.23 4.46-3.71 9.65-4.46 14.11-0.74 5.2-1.49 9.65-1.49 14.85v184.9c0 5.2 0.74 9.65 1.49 14.85 0.74 5.2 2.23 9.65 4.46 14.11 2.23 5.2 5.2 8.91 8.91 12.62s7.43 6.68 11.88 8.91c4.46 2.23 8.91 3.71 14.11 4.46 5.2 0.74 9.65 1.49 14.85 1.49h776.71c5.2 0 9.65-0.74 14.85-1.49 5.2-0.74 9.65-2.23 14.11-4.46s8.17-5.2 11.88-8.91 6.68-7.43 8.91-11.88c2.23-4.46 3.71-8.91 4.46-14.11 0.74-5.2 1.49-9.65 1.49-14.85v-185.64c0-5.2-0.74-9.65-1.49-14.85-0.74-5.2-2.23-9.65-4.46-14.11-4.46-8.91-11.88-16.34-20.79-20.79-4.46-2.23-8.91-3.71-14.11-4.46-5.2-0.74-9.65-1.49-14.85-1.49z"
       style="fill:#a6a6a6;stroke-width:0"
       id="path1" />
    <path
       d="m101.92 940.7h-6.68c-4.46 0-9.65 0-14.11-0.74s-8.17-2.23-12.62-4.46c-3.71-2.23-7.43-4.46-10.4-7.43s-5.2-6.68-7.43-10.4c-2.23-3.71-3.71-8.17-3.71-12.62-0.74-4.46-1.49-8.91-1.49-14.11v-184.9c0-4.46 0.74-9.65 1.49-14.11 1.49-3.71 2.23-8.17 4.46-11.88s4.46-7.43 7.43-10.4 6.68-5.2 10.4-7.43c3.71-2.23 8.17-3.71 12.62-4.46 4.46-0.74 9.65-1.49 14.11-1.49h776.71c4.46 0 8.91 0.74 14.11 1.49 4.46 0.74 8.17 2.23 12.62 3.71 7.43 3.71 14.11 10.4 17.82 17.82 2.23 3.71 2.97 8.17 3.71 12.62 0.74 4.46 1.49 9.65 1.49 14.11v184.9c0 4.46-0.74 8.91-1.49 13.37-0.74 4.46-2.23 8.17-3.71 12.62-2.23 3.71-4.46 7.43-7.43 10.4s-6.68 5.2-10.4 7.43c-3.71 2.23-8.17 3.71-12.62 4.46-4.46 0.74-8.91 1.49-14.11 1.49h-770.77z"
       style="fill:#fff;stroke-width:0"
       id="path2" />
    <path
       class="cls-5"
       d="m728.69 872.07c-7.26 0-13.96-1.83-20.21-5.59-6.26-3.65-11.28-8.56-14.96-14.84s-5.58-13.01-5.58-20.21 1.9-13.93 5.58-20.2c3.68-6.17 8.71-11.08 14.96-14.84 6.25-3.65 12.95-5.48 20.21-5.48s13.96 1.83 20.21 5.48c6.25 3.77 11.28 8.68 14.96 14.84 3.68 6.28 5.58 13.01 5.58 20.2s-1.9 13.93-5.58 20.21-8.71 11.19-14.96 14.84c-6.26 3.77-12.95 5.59-20.21 5.59zm0-15.3c4.24 0 8.15-1.14 11.84-3.54 3.68-2.28 6.59-5.37 8.71-9.25s3.24-8.11 3.24-12.56-1.11-8.67-3.24-12.56c-2.12-3.77-5.02-6.85-8.71-9.25-3.68-2.28-7.59-3.42-11.84-3.42s-8.04 1.14-11.72 3.42c-3.68 2.4-6.7 5.48-8.82 9.36s-3.24 7.99-3.24 12.44 1.11 8.68 3.24 12.56c2.12 3.88 5.14 6.96 8.82 9.25 3.68 2.4 7.59 3.54 11.72 3.54z"
       id="path3" />
    <path
       class="cls-5"
       d="m458.8 857.23 5.36 13.47h18.43l-31.15-78.43h-18.53l-31.15 78.43h18.42l5.36-13.47h33.27zm-16.64-41.67 11.39 28.54h-22.78z"
       id="path4" />
    <path
       class="cls-5"
       d="m541.3 797.29c-6.7-3.31-14.29-5.02-22.78-5.02h-27.47v78.43h27.47c8.49 0 16.08-1.71 22.78-5.02s11.95-7.99 15.74-14.04c3.68-5.94 5.58-12.67 5.58-20.21s-1.9-14.27-5.58-20.21c-3.8-5.94-9.04-10.62-15.74-13.93zm-7.7 55.03c-3.8 2.05-8.15 3.08-12.95 3.08h-13.18v-47.83h13.18c4.8 0 9.15 1.03 12.95 2.97 3.8 2.05 6.81 4.91 8.93 8.56s3.13 7.76 3.13 12.33-1.01 8.79-3.13 12.33c-2.12 3.65-5.13 6.51-8.93 8.56z"
       id="path5" />
    <path
       class="cls-5"
       d="m599.8 792.27c8.49 0 16.08 1.71 22.78 5.02s11.95 7.99 15.75 13.93c3.68 5.94 5.58 12.67 5.58 20.21s-1.9 14.27-5.58 20.21c-3.8 6.05-9.05 10.73-15.75 14.04s-14.29 5.02-22.78 5.02h-27.46v-78.43zm2.13 63.13c4.8 0 9.15-1.03 12.95-3.08 3.8-2.06 6.81-4.91 8.93-8.56 2.12-3.54 3.13-7.65 3.13-12.33s-1.01-8.68-3.13-12.33-5.14-6.51-8.93-8.56c-3.8-1.94-8.15-2.97-12.95-2.97h-13.18v47.83z"
       id="path6" />
    <path
       class="cls-7"
       d="m650.61 832.23h30.59v14.16h-30.59z"
       id="path7" />
    <path
       class="cls-7"
       d="m795.55 792.27h-16.42v78.43h16.42v-50.69l37.07 50.69h16.42v-78.43h-16.42v50.69z"
       id="path8" />
    <path
       class="cls-7"
       d="m451.17 745.27h-22.14v7.86h12.96v9.55c-1.59 1.23-3.47 2.16-5.42 2.85-2.04 0.69-4.07 1-6.03 1-3.16 0-6.1-0.85-8.81-2.54-2.79-1.69-4.97-4.01-6.55-6.86s-2.41-5.93-2.41-9.24 0.83-6.39 2.41-9.24 3.77-5.09 6.55-6.78c2.71-1.69 5.65-2.54 8.81-2.54 2.57 0 5.13 0.54 7.69 1.62 2.56 1.15 4.67 2.62 6.25 4.55l6.7-6.39c-2.48-2.62-5.64-4.7-9.34-6.24-3.69-1.54-7.46-2.31-11.3-2.31-4.9 0-9.41 1.23-13.56 3.69-4.22 2.47-7.53 5.78-10.02 10.02-2.56 4.23-3.77 8.78-3.77 13.63s1.21 9.4 3.77 13.63c2.48 4.24 5.8 7.55 10.02 10.02 4.15 2.54 8.66 3.77 13.56 3.77 3.77 0 7.53-0.77 11.3-2.31 3.69-1.54 6.86-3.62 9.34-6.32v-21.41z"
       id="path9" />
    <path
       class="cls-7"
       d="m468.42 730.25h29.53v-8.78h-38.94v52.91h38.94v-8.78h-29.53v-13.79h26.74v-8.78h-26.74z"
       id="path10" />
    <path
       class="cls-7"
       d="m519.85 730.25h-16.57v-8.78h42.48v8.78h-16.5v44.13h-9.41z"
       id="path11" />
    <path
       class="cls-7"
       d="M569 730.25h16.57v44.13h9.42v-44.13h16.49v-8.78H569Z"
       id="path12" />
    <path
       class="cls-7"
       d="M653.54 721.47h9.34v52.91h-9.34v-22.57H627.7v22.57h-9.42v-52.91h9.42v21.56h25.84z"
       id="path13" />
    <path
       class="cls-7"
       d="M681.9 730.25h29.53v-8.78h-38.94v52.91h38.94v-8.78H681.9v-13.79h26.74v-8.78H681.9Z"
       id="path14" />
    <g
       id="g165"
       transform="translate(0.54740611,359.71349)">
      <path
         d="m 326.04,401.12 c -4.94,-11.88 -14.93,-24.7 -22.79,-28.75 6.39,12.53 10.09,25.1 11.5,34.47 0,0.02 0,0.06 0.02,0.19 -12.84,-32.01 -34.62,-44.92 -52.41,-73.03 -0.9,-1.42 -1.8,-2.85 -2.68,-4.35 -0.44,-0.76 -0.86,-1.55 -1.25,-2.35 a 20.65,20.65 0 0 1 -1.7,-4.49 c 0,-0.15 -0.1,-0.29 -0.26,-0.31 a 0.739,0.739 0 0 0 -0.21,0 c -0.02,0 -0.04,0.02 -0.06,0.03 -0.02,0 -0.05,0.03 -0.08,0.04 0,-0.01 0.03,-0.05 0.04,-0.06 -28.53,16.71 -38.21,47.63 -39.1,63.09 a 56.777,56.777 0 0 0 -31.26,12.05 c -0.94,-0.8 -1.93,-1.54 -2.94,-2.22 a 52.62,52.62 0 0 1 -0.32,-27.76 c -11.67,5.31 -20.75,13.71 -27.35,21.13 h -0.05 c -4.5,-5.71 -4.19,-24.52 -3.93,-28.45 -0.05,-0.24 -3.36,1.72 -3.79,2.01 a 82.544,82.544 0 0 0 -11.1,9.51 99.244,99.244 0 0 0 -10.61,12.72 v 0.01 -0.01 A 95.766,95.766 0 0 0 110.47,419 l -0.15,0.75 c -0.21,1 -0.98,6 -1.12,7.09 -0.01,0.08 -0.01,0.16 -0.02,0.25 -1,5.17 -1.61,10.41 -1.85,15.67 0,0.19 -0.01,0.39 -0.01,0.58 0,62.73 50.86,113.58 113.59,113.58 56.18,0 102.83,-40.79 111.97,-94.36 0.19,-1.46 0.34,-2.92 0.51,-4.38 2.26,-19.48 -0.25,-39.95 -7.37,-57.07 z m -130.92,88.9 c 0.53,0.25 1.03,0.53 1.58,0.77 0.02,0.01 0.05,0.03 0.07,0.05 -0.55,-0.27 -1.11,-0.54 -1.65,-0.82 z m 119.67,-82.96 v -0.11 0.12 z"
         id="path129"
         style="fill:url(#linearGradient168);stroke-width:0" />
      <path
         d="m 326.04,401.12 c -4.94,-11.88 -14.93,-24.7 -22.79,-28.75 6.39,12.53 10.09,25.1 11.5,34.47 0,-0.03 0,0.02 0.02,0.1 0,0.04 0,0.08 0.02,0.12 10.71,29.05 4.88,58.6 -3.54,76.65 -13.01,27.93 -44.53,56.56 -93.86,55.16 -53.29,-1.51 -100.24,-41.05 -109.01,-92.85 -1.6,-8.17 0,-12.32 0.8,-18.95 -0.98,5.11 -1.35,6.59 -1.85,15.67 0,0.19 -0.01,0.38 -0.01,0.58 0,62.72 50.86,113.57 113.59,113.57 56.18,0 102.83,-40.78 111.96,-94.35 0.19,-1.46 0.35,-2.92 0.52,-4.38 2.26,-19.48 -0.25,-39.95 -7.37,-57.07 z"
         id="path130"
         style="fill:url(#radialGradient168-9);stroke-width:0" />
      <path
         d="m 326.04,401.12 c -4.94,-11.88 -14.93,-24.7 -22.79,-28.75 6.39,12.53 10.09,25.1 11.5,34.47 0,-0.03 0,0.02 0.02,0.1 0,0.04 0,0.08 0.02,0.12 10.71,29.05 4.88,58.6 -3.54,76.65 -13.01,27.93 -44.53,56.56 -93.86,55.16 -53.29,-1.51 -100.24,-41.05 -109.01,-92.85 -1.6,-8.17 0,-12.32 0.8,-18.95 -0.98,5.11 -1.35,6.59 -1.85,15.67 0,0.19 -0.01,0.38 -0.01,0.58 0,62.72 50.86,113.57 113.59,113.57 56.18,0 102.83,-40.78 111.96,-94.35 0.19,-1.46 0.35,-2.92 0.52,-4.38 2.26,-19.48 -0.25,-39.95 -7.37,-57.07 z"
         id="path131"
         style="fill:url(#radialGradient169-4);stroke-width:0" />
      <path
         d="m 270.85,414.47 c 0.25,0.17 0.47,0.35 0.71,0.52 -2.85,-5.06 -6.4,-9.69 -10.55,-13.76 -35.31,-35.31 -9.26,-76.55 -4.87,-78.64 0.01,-0.02 0.04,-0.05 0.05,-0.06 -28.54,16.71 -38.21,47.62 -39.11,63.09 1.33,-0.09 2.64,-0.2 3.99,-0.2 21.29,0 39.84,11.71 49.77,29.06 z"
         id="path132"
         style="fill:url(#radialGradient170-8);stroke-width:0" />
      <path
         d="m 221.12,421.52 c -0.18,2.83 -10.17,12.57 -13.66,12.57 -32.3,0 -37.54,19.54 -37.54,19.54 1.43,16.45 12.88,30 26.76,37.17 0.63,0.33 1.27,0.62 1.92,0.92 1.1,0.48 2.21,0.94 3.34,1.36 a 50.36,50.36 0 0 0 14.78,2.85 c 56.61,2.65 67.58,-67.69 26.73,-88.11 10.46,-1.82 21.32,2.39 27.39,6.65 -9.93,-17.35 -28.48,-29.06 -49.77,-29.06 -1.35,0 -2.67,0.11 -3.99,0.2 a 56.777,56.777 0 0 0 -31.26,12.05 c 1.73,1.47 3.69,3.43 7.8,7.48 7.71,7.6 27.48,15.46 27.52,16.38 z"
         id="path133"
         style="fill:url(#radialGradient171-8);stroke-width:0" />
      <path
         d="m 221.12,421.52 c -0.18,2.83 -10.17,12.57 -13.66,12.57 -32.3,0 -37.54,19.54 -37.54,19.54 1.43,16.45 12.88,30 26.76,37.17 0.63,0.33 1.27,0.62 1.92,0.92 1.1,0.48 2.21,0.94 3.34,1.36 a 50.36,50.36 0 0 0 14.78,2.85 c 56.61,2.65 67.58,-67.69 26.73,-88.11 10.46,-1.82 21.32,2.39 27.39,6.65 -9.93,-17.35 -28.48,-29.06 -49.77,-29.06 -1.35,0 -2.67,0.11 -3.99,0.2 a 56.777,56.777 0 0 0 -31.26,12.05 c 1.73,1.47 3.69,3.43 7.8,7.48 7.71,7.6 27.48,15.46 27.52,16.38 z"
         id="path134"
         style="fill:url(#radialGradient172-2);stroke-width:0" />
      <path
         d="m 180.5,393.89 c 0.79,0.51 1.58,1.03 2.35,1.56 a 52.62,52.62 0 0 1 -0.32,-27.76 c -11.67,5.31 -20.74,13.71 -27.34,21.13 0.54,-0.01 17.02,-0.31 25.31,5.07 z"
         id="path135"
         style="fill:url(#radialGradient173-4);stroke-width:0" />
      <path
         d="m 108.41,446.05 c 8.76,51.79 55.72,91.33 109.01,92.85 49.32,1.4 80.84,-27.24 93.86,-55.17 8.41,-18.05 14.25,-47.59 3.53,-76.65 l -0.02,-0.12 c -0.01,-0.08 -0.02,-0.13 -0.02,-0.1 0,0.01 0.01,0.06 0.02,0.19 4.03,26.31 -9.36,51.79 -30.28,69.03 l -0.06,0.15 c -40.76,33.19 -79.77,20.02 -87.67,14.64 -0.55,-0.27 -1.1,-0.54 -1.65,-0.82 -23.77,-11.36 -33.59,-33.01 -31.48,-51.58 -20.07,0 -26.91,-16.93 -26.91,-16.93 0,0 18.02,-12.85 41.77,-1.68 21.99,10.35 42.64,1.68 42.65,1.68 -0.04,-0.92 -19.81,-8.79 -27.52,-16.38 -4.12,-4.06 -6.08,-6.02 -7.81,-7.48 -0.94,-0.79 -1.92,-1.54 -2.94,-2.22 a 119.5,119.5 0 0 0 -2.35,-1.56 c -8.29,-5.39 -24.76,-5.09 -25.31,-5.07 h -0.05 c -4.5,-5.71 -4.19,-24.52 -3.93,-28.45 -0.05,-0.24 -3.36,1.72 -3.8,2.01 a 83.168,83.168 0 0 0 -11.1,9.51 c -3.89,3.94 -7.43,8.2 -10.61,12.72 0,0 0,0.01 -0.01,0.02 l 0.01,-0.02 a 95.67,95.67 0 0 0 -15.24,34.41 c -0.05,0.24 -4.09,17.89 -2.1,27.04 z"
         id="path136"
         style="fill:url(#radialGradient174-5);stroke-width:0" />
      <path
         d="m 260.99,401.23 c 4.15,4.07 7.69,8.7 10.55,13.76 0.62,0.47 1.21,0.94 1.71,1.39 25.75,23.73 12.26,57.29 11.25,59.68 20.92,-17.23 34.3,-42.72 30.27,-69.03 -12.84,-32.01 -34.62,-44.92 -52.41,-73.03 -0.9,-1.42 -1.8,-2.85 -2.67,-4.35 -0.45,-0.76 -0.87,-1.55 -1.25,-2.35 a 20.65,20.65 0 0 1 -1.7,-4.49 c 0,-0.15 -0.1,-0.29 -0.25,-0.31 a 0.739,0.739 0 0 0 -0.21,0 c -0.02,0 -0.04,0.02 -0.05,0.03 -0.02,0 -0.06,0.03 -0.08,0.04 -4.39,2.1 -30.44,43.34 4.87,78.64 z"
         id="path137"
         style="fill:url(#radialGradient175-5);stroke-width:0" />
      <path
         d="m 273.23,416.39 c -0.49,-0.45 -1.08,-0.92 -1.71,-1.39 -0.23,-0.17 -0.46,-0.35 -0.7,-0.52 -6.07,-4.26 -16.93,-8.47 -27.39,-6.65 40.86,20.43 29.89,90.77 -26.73,88.11 -5.04,-0.2 -10.03,-1.16 -14.78,-2.85 -1.13,-0.42 -2.24,-0.88 -3.34,-1.36 -0.64,-0.29 -1.28,-0.59 -1.92,-0.92 0.02,0.01 0.05,0.03 0.08,0.05 7.9,5.39 46.9,18.55 87.67,-14.64 l 0.06,-0.15 c 1,-2.39 14.5,-35.95 -11.25,-59.68 z"
         id="path138"
         style="fill:url(#radialGradient176-1);stroke-width:0" />
      <path
         d="m 169.92,453.63 c 0,0 5.24,-19.54 37.54,-19.54 3.49,0 13.47,-9.74 13.66,-12.57 0.18,-2.83 -20.65,8.67 -42.65,-1.68 -23.74,-11.17 -41.76,1.68 -41.76,1.68 0,0 6.84,16.93 26.91,16.93 -2.11,18.57 7.71,40.22 31.48,51.58 0.53,0.25 1.03,0.53 1.57,0.77 -13.87,-7.17 -25.33,-20.72 -26.75,-37.17 z"
         id="path139"
         style="fill:url(#radialGradient177-7);stroke-width:0" />
      <path
         d="m 326.04,401.12 c -4.94,-11.88 -14.94,-24.7 -22.79,-28.75 6.39,12.53 10.09,25.1 11.5,34.47 0,0.02 0,0.06 0.02,0.19 -12.84,-32.01 -34.62,-44.92 -52.41,-73.03 -0.9,-1.42 -1.8,-2.85 -2.67,-4.35 -0.45,-0.76 -0.86,-1.55 -1.25,-2.35 a 20.65,20.65 0 0 1 -1.7,-4.49 c 0,-0.15 -0.11,-0.29 -0.26,-0.31 a 0.739,0.739 0 0 0 -0.21,0 c -0.01,0 -0.04,0.02 -0.05,0.03 -0.02,0 -0.06,0.03 -0.08,0.04 0.01,-0.01 0.04,-0.05 0.05,-0.06 -28.54,16.71 -38.21,47.63 -39.11,63.09 1.33,-0.09 2.64,-0.2 3.99,-0.2 21.29,0 39.84,11.71 49.77,29.06 -6.07,-4.26 -16.93,-8.47 -27.39,-6.65 40.86,20.42 29.89,90.76 -26.73,88.11 -5.04,-0.2 -10.02,-1.17 -14.78,-2.85 -1.12,-0.42 -2.23,-0.88 -3.34,-1.36 -0.64,-0.29 -1.28,-0.59 -1.91,-0.92 0.02,0.02 0.05,0.03 0.07,0.05 -0.55,-0.27 -1.11,-0.54 -1.66,-0.82 0.53,0.25 1.03,0.53 1.58,0.77 -13.87,-7.17 -25.33,-20.72 -26.76,-37.17 0,0 5.24,-19.53 37.55,-19.53 3.49,0 13.47,-9.75 13.66,-12.57 -0.04,-0.92 -19.81,-8.79 -27.52,-16.38 -4.12,-4.06 -6.07,-6.02 -7.8,-7.48 -0.94,-0.79 -1.93,-1.54 -2.94,-2.22 a 52.62,52.62 0 0 1 -0.32,-27.76 c -11.67,5.31 -20.75,13.71 -27.35,21.13 h -0.05 c -4.5,-5.7 -4.19,-24.52 -3.93,-28.44 -0.05,-0.24 -3.36,1.72 -3.79,2.01 a 81.828,81.828 0 0 0 -11.1,9.51 c -3.89,3.94 -7.43,8.2 -10.61,12.72 v 0.01 -0.01 a 95.594,95.594 0 0 0 -15.24,34.41 l -0.15,0.75 c -0.21,1 -1.17,6.07 -1.31,7.16 -0.01,0.08 0,-0.08 0,0 -0.88,5.24 -1.44,10.54 -1.68,15.85 0,0.19 -0.01,0.38 -0.01,0.58 0,62.73 50.86,113.58 113.59,113.58 56.18,0 102.83,-40.79 111.96,-94.36 0.19,-1.46 0.35,-2.92 0.52,-4.38 2.25,-19.48 -0.25,-39.95 -7.37,-57.07 z m -11.27,5.83 c 0,0 0,0.08 0.01,0.12 z"
         id="path140"
         style="fill:url(#linearGradient177);stroke-width:0" />
    </g>
  </g>
</svg>
