<?xml version="1.0" encoding="UTF-8"?>
<svg data-name="Layer 1" version="1.1" viewBox="0 0 941.31 334.38" xmlns="http://www.w3.org/2000/svg">
 <defs>
  <style>.cls-2 {
            stroke-width: 0;
            fill: #fff
         }</style>
 </defs>
 <g transform="translate(-8.03 -70.89)">
  <path d="M8.53 71.39h940.31v333.38H8.53z" style="stroke-width:0"/>
  <path class="cls-2" d="M435.21 332.12h-15.76v-61.98c0-5.08.32-11.29.94-18.63h-.27c-.97 4.19-1.85 7.19-2.6 9.02l-28.59 71.59h-10.95l-28.65-71.06c-.8-2.09-1.65-5.28-2.54-9.55h-.27c.36 3.83.54 10.08.54 18.77v61.84h-14.69v-95.77h22.37l25.17 63.78c1.91 4.9 3.16 8.55 3.74 10.95h.33c1.65-5.03 2.98-8.77 4.01-11.22l25.64-63.51h21.57v95.77z"/>
  <path class="cls-2" d="M462.2 249.37c-2.54 0-4.72-.82-6.55-2.47-1.78-1.65-2.67-3.74-2.67-6.28s.89-4.65 2.67-6.34c1.83-1.69 4.01-2.54 6.55-2.54s4.85.85 6.68 2.54c1.82 1.69 2.74 3.81 2.74 6.34 0 2.4-.91 4.47-2.74 6.21-1.83 1.69-4.05 2.54-6.68 2.54zm7.67 82.75h-15.49v-68.39h15.49z"/>
  <path class="cls-2" d="m536.4 328.98c-5.48 3.16-11.96 4.74-19.44 4.74-10.15 0-18.34-3.16-24.58-9.48-6.23-6.37-9.35-14.6-9.35-24.71 0-11.26 3.34-20.3 10.02-27.11 6.73-6.86 15.69-10.28 26.92-10.28 6.23 0 11.73 1.09 16.49 3.27v14.43c-4.76-3.56-9.84-5.34-15.22-5.34-6.54 0-11.91 2.23-16.1 6.68-4.18 4.41-6.27 10.2-6.27 17.36s1.96 12.67 5.88 16.76c3.96 4.1 9.26 6.14 15.89 6.14 5.56 0 10.82-1.98 15.76-5.94v13.49z"/>
  <path class="cls-2" d="m588.76 278.49c-1.87-1.47-4.56-2.2-8.08-2.2-4.59 0-8.42 2.07-11.49 6.21s-4.61 9.77-4.61 16.9v32.72h-15.5v-68.39h15.5v14.09h0.26c1.51-4.81 3.83-8.55 6.95-11.22 3.15-2.72 6.68-4.07 10.55-4.07 2.8 0 4.94 0.42 6.41 1.27v14.69z"/>
  <path class="cls-2" d="m627.29 333.72c-10.55 0-18.99-3.18-25.31-9.55-6.27-6.41-9.41-14.89-9.41-25.44 0-11.49 3.27-20.46 9.81-26.91 6.59-6.46 15.45-9.68 26.58-9.68s19.01 3.14 24.98 9.42 8.95 14.98 8.95 26.11-3.22 19.66-9.69 26.25c-6.41 6.54-15.04 9.82-25.91 9.82zm0.74-59.24c-6.05 0-10.84 2.11-14.36 6.34-3.51 4.23-5.27 10.06-5.27 17.5s1.78 12.82 5.34 16.96c3.56 4.1 8.33 6.14 14.29 6.14s10.77-2.03 14.03-6.08c3.29-4.05 4.94-9.82 4.94-17.3s-1.65-13.33-4.94-17.43c-3.26-4.1-7.92-6.14-14.03-6.14z"/>
  <path class="cls-2" d="m671.71 329.98v-14.36c5.79 4.41 12.17 6.61 19.17 6.61 9.35 0 14.03-2.76 14.03-8.28 0-1.56-0.4-2.87-1.21-3.94-0.8-1.11-1.89-2.09-3.27-2.94-1.33-0.85-2.94-1.6-4.8-2.27-1.83-0.67-3.88-1.43-6.15-2.27-2.8-1.11-5.34-2.29-7.62-3.54-2.22-1.25-4.09-2.65-5.61-4.21a16.7 16.7 0 0 1-3.34-5.41c-0.75-2-1.13-4.34-1.13-7.01 0-3.29 0.78-6.19 2.33-8.68 1.56-2.54 3.65-4.65 6.27-6.34 2.63-1.74 5.62-3.03 8.95-3.87 3.34-0.89 6.79-1.34 10.35-1.34 6.33 0 11.98 0.96 16.97 2.87v13.56c-4.81-3.29-10.34-4.94-16.57-4.94-1.96 0-3.74 0.2-5.34 0.6-1.56 0.4-2.9 0.96-4.01 1.67s-1.98 1.58-2.6 2.6a6 6 0 0 0-0.94 3.27c0 1.47 0.32 2.72 0.94 3.74s1.53 1.94 2.74 2.74c1.25 0.76 2.72 1.47 4.41 2.14 1.74 0.62 3.71 1.31 5.94 2.07 2.94 1.2 5.56 2.43 7.88 3.67 2.36 1.25 4.36 2.67 6.01 4.27 1.65 1.56 2.91 3.38 3.8 5.48 0.89 2.05 1.33 4.5 1.33 7.35 0 3.47-0.8 6.5-2.4 9.08s-3.74 4.72-6.41 6.41-5.76 2.94-9.28 3.74c-3.47 0.85-7.15 1.27-11.02 1.27-7.48 0-13.96-1.25-19.43-3.74z"/>
  <path class="cls-2" d="m762.6 333.72c-10.56 0-18.99-3.18-25.31-9.55-6.27-6.41-9.42-14.89-9.42-25.44 0-11.49 3.27-20.46 9.82-26.91 6.59-6.46 15.45-9.68 26.58-9.68s19.01 3.14 24.98 9.42 8.95 14.98 8.95 26.11-3.23 19.66-9.69 26.25c-6.41 6.54-15.04 9.82-25.91 9.82zm0.74-59.24c-6.06 0-10.84 2.11-14.36 6.34-3.51 4.23-5.27 10.06-5.27 17.5s1.78 12.82 5.34 16.96c3.56 4.1 8.33 6.14 14.29 6.14s10.77-2.03 14.02-6.08c3.3-4.05 4.95-9.82 4.95-17.3s-1.65-13.33-4.95-17.43c-3.25-4.1-7.92-6.14-14.02-6.14z"/>
  <path class="cls-2" d="M849.96 243.49c-2.09-1.2-4.48-1.8-7.15-1.8-7.52 0-11.28 4.25-11.28 12.76v9.28h15.89v12.15h-15.83v56.23H816.1v-56.23h-11.69v-12.15h11.69v-11.09c0-7.21 2.36-12.89 7.08-17.03 4.72-4.18 10.62-6.28 17.69-6.28 3.83 0 6.86.42 9.09 1.27z"/>
  <path class="cls-2" d="M891.77 331.38c-3.03 1.51-7.01 2.27-11.96 2.27-13.27 0-19.9-6.37-19.9-19.1v-38.67h-11.42v-12.15h11.42V247.9l15.5-4.41v20.24h16.36v12.15h-16.36v34.19c0 4.05.74 6.95 2.21 8.68 1.46 1.74 3.92 2.6 7.34 2.6 2.62 0 4.9-.76 6.81-2.27v12.29z"/>
  <path class="cls-2" d="m376.21 191.46c-5.92 3.23-12.52 4.84-19.79 4.84-8.4 0-15.22-2.62-20.42-7.85-5.21-5.23-7.81-12.16-7.81-20.78s2.85-16.02 8.53-21.65c5.71-5.66 12.95-8.49 21.73-8.49 6.32 0 11.63 0.93 15.93 2.78v9.72c-4.36-2.91-9.56-4.36-15.58-4.36s-11.02 2-14.91 5.99c-3.86 3.99-5.79 9.16-5.79 15.5s1.67 11.67 4.99 15.42c3.33 3.73 7.86 5.59 13.57 5.59 3.92 0 7.29-0.75 10.15-2.26v-13.52h-11.98v-7.93h21.38z"/>
  <path class="cls-2" d="m422.62 177.54h-27.68c0.11 3.75 1.26 6.65 3.45 8.68 2.22 2.04 5.26 3.05 9.12 3.05 4.33 0 8.31-1.3 11.93-3.89v7.41c-3.7 2.33-8.59 3.49-14.67 3.49s-10.67-1.84-14.08-5.51c-3.39-3.7-5.08-8.9-5.08-15.58 0-6.32 1.86-11.46 5.59-15.43 3.75-3.99 8.41-5.99 13.96-5.99s9.85 1.78 12.89 5.35c3.03 3.57 4.56 8.53 4.56 14.87v3.53zm-8.88-6.5c-0.03-3.3-0.8-5.87-2.34-7.69-1.53-1.85-3.64-2.78-6.34-2.78s-4.89 0.97-6.74 2.89c-1.83 1.93-2.95 4.45-3.38 7.57h18.8z"/>
  <path class="cls-2" d="M453.61 194.91c-1.8.9-4.16 1.35-7.1 1.35-7.88 0-11.81-3.78-11.81-11.34v-22.96h-6.79v-7.22h6.79v-9.4l9.2-2.62v12.01h9.71v7.22h-9.71v20.3c0 2.41.44 4.12 1.31 5.16.87 1.03 2.33 1.55 4.36 1.55 1.56 0 2.91-.45 4.04-1.35z"/>
  <path class="cls-2" d="m490.17 146.21c-1.5 0-2.8-0.49-3.89-1.47-1.05-0.98-1.58-2.22-1.58-3.73s0.53-2.76 1.58-3.77c1.09-1 2.39-1.51 3.89-1.51s2.88 0.5 3.97 1.51 1.62 2.26 1.62 3.77c0 1.43-0.54 2.66-1.62 3.69-1.09 1-2.41 1.51-3.97 1.51zm4.55 49.13h-9.2v-40.6h9.2z"/>
  <path class="cls-2" d="M529 194.91c-1.8.9-4.16 1.35-7.1 1.35-7.87 0-11.81-3.78-11.81-11.34v-22.96h-6.78v-7.22h6.78v-9.4l9.2-2.62v12.01H529v7.22h-9.71v20.3c0 2.41.44 4.12 1.31 5.16.87 1.03 2.33 1.55 4.36 1.55 1.56 0 2.91-.45 4.04-1.35z"/>
  <path class="cls-2" d="M583.88 142.72c-1.24-.71-2.66-1.07-4.24-1.07-4.47 0-6.7 2.53-6.7 7.57v5.51h9.44v7.22h-9.4v33.39h-9.2v-33.39h-6.93v-7.22h6.93v-6.58c0-4.28 1.4-7.65 4.21-10.11 2.8-2.48 6.31-3.73 10.51-3.73 2.27 0 4.07.25 5.39.75v7.65z"/>
  <path class="cls-2" d="M613.29 163.5c-1.11-.87-2.71-1.31-4.8-1.31-2.72 0-4.99 1.23-6.82 3.69-1.82 2.46-2.74 5.8-2.74 10.03v19.43h-9.2v-40.6h9.2v8.37h.16c.9-2.86 2.27-5.08 4.12-6.66 1.88-1.61 3.97-2.42 6.27-2.42 1.67 0 2.94.25 3.81.75z"/>
  <path class="cls-2" d="m638.6 196.29c-6.27 0-11.28-1.89-15.03-5.67-3.73-3.81-5.59-8.84-5.59-15.11 0-6.82 1.94-12.15 5.83-15.98 3.92-3.83 9.17-5.75 15.78-5.75s11.29 1.86 14.83 5.59c3.55 3.73 5.32 8.9 5.32 15.5s-1.91 11.67-5.75 15.58c-3.8 3.89-8.93 5.83-15.39 5.83zm0.44-35.17c-3.59 0-6.44 1.26-8.52 3.77-2.09 2.51-3.13 5.97-3.13 10.39s1.05 7.61 3.17 10.07c2.11 2.43 4.94 3.65 8.48 3.65s6.4-1.2 8.33-3.61c1.96-2.41 2.94-5.83 2.94-10.27s-0.98-7.92-2.94-10.35c-1.92-2.43-4.7-3.65-8.33-3.65z"/>
  <path class="cls-2" d="M730.66 195.34h-9.2v-22.13c0-4.26-.61-7.34-1.83-9.24-1.19-1.9-3.21-2.86-6.06-2.86-2.41 0-4.45 1.2-6.15 3.61-1.67 2.41-2.5 5.29-2.5 8.64v21.97h-9.23v-22.88c0-7.56-2.68-11.34-8.01-11.34-2.49 0-4.54 1.14-6.15 3.41-1.59 2.27-2.38 5.22-2.38 8.84v21.97h-9.2v-40.6h9.2v6.42h.16c2.93-4.92 7.2-7.38 12.81-7.38 2.8 0 5.25.78 7.33 2.34 2.12 1.53 3.56 3.56 4.33 6.07 3.01-5.6 7.51-8.41 13.48-8.41 8.93 0 13.4 5.51 13.4 16.53v25.02z"/>
  <path d="M72.64 135.51h94.03v94.03H72.64z" style="fill:#f25022;stroke-width:0"/>
  <path d="M72.64 238.08h94.03v94.03H72.64z" style="fill:#00a3ee;stroke-width:0"/>
  <path d="m175.22 135.51h94.03v94.03h-94.03z" style="fill:#7eb900;stroke-width:0"/>
  <path d="m175.22 238.08h94.03v94.03h-94.03z" style="fill:#ffb800;stroke-width:0"/>
  <path d="M8.53 71.39h940.31v333.38H8.53z" style="fill:none;stroke:#d2d2d2"/>
 </g>
</svg>
